PathFileType	4	(X/Y/Z)	E:\Qualisys_Data\Carbon_Farble_Plate\Data\Amateur_Runner\S1\T3\S1T3V21_c3d.trc
DataRate	CameraRate	NumFrames	NumMarkers	Units	OrigDataRate	OrigDataStartFrame	OrigNumFrames
200.000000	200.000000	5	39	mm	200.000000	0	298
Frame#	Time	LSHO			RSHO			LICST			RICST			LASIS			LHEEL			RASIS			LTROC			RTROC			SACR			LTH1			LSK4			LTH2			LTH3			RHM5			LSK2			LTH4			RTH1			LTOE			RTH2			RTH3			RTH4			LLEP			RLEP			LSK1			LSK3			RSK1			LHM5			RSK2			LFT1			RSK3			RSK4			LLME			RLME			RTOE			RHEEL			RFT1			RFT2			LFT2			
		X1	Y1	Z1	X2	Y2	Z2	X3	Y3	Z3	X4	Y4	Z4	X5	Y5	Z5	X6	Y6	Z6	X7	Y7	Z7	X8	Y8	Z8	X9	Y9	Z9	X10	Y10	Z10	X11	Y11	Z11	X12	Y12	Z12	X13	Y13	Z13	X14	Y14	Z14	X15	Y15	Z15	X16	Y16	Z16	X17	Y17	Z17	X18	Y18	Z18	X19	Y19	Z19	X20	Y20	Z20	X21	Y21	Z21	X22	Y22	Z22	X23	Y23	Z23	X24	Y24	Z24	X25	Y25	Z25	X26	Y26	Z26	X27	Y27	Z27	X28	Y28	Z28	X29	Y29	Z29	X30	Y30	Z30	X31	Y31	Z31	X32	Y32	Z32	X33	Y33	Z33	X34	Y34	Z34	X35	Y35	Z35	X36	Y36	Z36	X37	Y37	Z37	X38	Y38	Z38	X39	Y39	Z39	

1	0	-2921.507080078125	1549.376831054688	-555.824951171875	-3009.707763671875	1536.28173828125	-246.4391021728516	-2967.625244140625	1066.864868164062	-547.4539184570312	-2984.6298828125	1096.662231445312	-253.7738800048828	-2930.600830078125	1022.205871582031	-520.4278564453125	-3571.697021484375	362.1424255371094	-464.3242492675781	-2948.42724609375	1048.044799804688	-258.9047546386719	-3062.319091796875	966.833740234375	-564.6834106445312	-3045.270751953125	962.5199584960938	-224.6680450439453	-3092.7734375	1107.601318359375	-404.5589599609375	-3007.154296875	780.7852783203125	-535.61474609375	-3453.96630859375	439.4084777832031	-487.5373229980469	-3080.343017578125	807.8671875	-566.583740234375	-3049.443603515625	687.1325073242188	-519.7009887695312	-2652.881103515625	170.0867614746094	-237.3028564453125	-3373.54931640625	492.8584594726562	-525.227783203125	-3125.509033203125	719.1819458007812	-541.51025390625	-2871.03857421875	896.8543090820312	-246.57275390625	-3480.670654296875	129.8840942382812	-432.3800659179688	-2934.722412109375	853.1724853515625	-221.9230804443359	-2815.600830078125	810.147216796875	-249.9867858886719	-2885.17236328125	768.158203125	-238.8867340087891	-3169.323974609375	571.4312744140625	-508.1870727539062	-2789.3662109375	627.3275756835938	-265.2673950195312	-3326.633544921875	423.7785949707031	-512.8522338867188	-3414.65185546875	372.4297790527344	-508.5274353027344	-2783.1953125	431.9551086425781	-242.9450988769531	-3528.81298828125	174.6875305175781	-498.2460632324219	-2862.122802734375	429.1488342285156	-266.1631164550781	-3592.53515625	347.7035522460938	-429.9554443359375	-2775.61669921875	331.9187316894531	-257.6041870117188	-2850.029541015625	330.9653930664062	-288.9100036621094	-3526.887451171875	323.2499084472656	-504.7464599609375	-2795.758544921875	194.7743682861328	-263.6726684570312	-2598.792724609375	195.7443237304688	-305.9295654296875	-2849.25244140625	136.5445556640625	-311.9710693359375	-2824.726806640625	113.6598739624023	-341.7128601074219	-2838.232421875	113.6763916015625	-290.41845703125	-3599.420654296875	340.0678405761719	-481.591552734375
2	0.005	-2899.8779296875	1550.177734375	-555.0105590820312	-2989.12548828125	1535.5029296875	-244.7884521484375	-2946.884765625	1067.800903320312	-547.5045166015625	-2964.832763671875	1096.628662109375	-253.0947875976562	-2909.548583984375	1023.128173828125	-520.0780639648438	-3553.527099609375	372.4565734863281	-462.7887573242188	-2927.609130859375	1048.355712890625	-258.0205993652344	-3040.71875	966.9884033203124	-564.7827758789062	-3023.728515625	961.9251708984376	-225.0996856689453	-3072.069091796875	1108.026489257812	-404.6274108886719	-2983.73779296875	780.9037475585938	-533.5030517578125	-3433.718505859375	446.4525756835938	-487.052490234375	-3056.58447265625	807.1234741210938	-565.4019775390625	-3025.513916015625	687.00146484375	-517.7884521484375	-2618.357666015625	171.6430206298828	-236.8712463378906	-3351.9599609375	497.7615966796875	-524.9493408203125	-3100.82275390625	718.0764770507812	-540.3993530273438	-2851.3486328125	892.8370361328125	-246.7668762207031	-3467.766845703125	138.7720642089844	-429.4862976074219	-2915.53662109375	851.4358520507812	-220.5525817871094	-2798.2548828125	805.093017578125	-249.5593109130859	-2867.824951171875	764.3046875	-237.1195526123047	-3145.322265625	570.4102783203125	-507.2106628417969	-2773.19580078125	622.8825073242188	-265.6523132324219	-3306.85888671875	426.9673767089844	-511.8670349121094	-3396.137451171875	378.4774780273438	-507.4884033203125	-2758.867919921875	428.5084228515625	-242.5836791992188	-3515.3115234375	184.2001800537109	-496.8699645996094	-2838.828125	422.9669799804688	-264.8037414550781	-3575.0068359375	358.0476989746094	-429.2434387207031	-2748.108642578125	329.1297912597656	-256.68505859375	-2823.571044921875	325.2506408691406	-287.8238525390625	-3508.505615234375	331.6434020996094	-503.4659118652344	-2762.583740234375	191.5087280273438	-262.9898376464844	-2565.816162109375	199.5986633300781	-306.26806640625	-2814.06884765625	131.0717468261719	-310.0737915039062	-2789.28955078125	108.4523468017578	-340.5021667480469	-2802.41259765625	108.0453033447266	-288.7193298339844	-3582.1982421875	351.4623413085938	-481.0392456054688
3	0.01	-2877.81494140625	1550.811157226562	-553.0447387695312	-2967.651611328125	1534.648803710938	-243.1773376464844	-2925.9755859375	1068.478393554688	-546.9022216796875	-2944.201416015625	1096.305419921875	-253.2917327880859	-2888.4013671875	1024.35546875	-520.3138427734375	-3534.679443359375	383.0853881835938	-461.4256896972656	-2906.49169921875	1048.244750976562	-258.4808654785156	-3018.738525390625	966.8489379882812	-564.4579467773438	-3002.307861328125	961.5658569335938	-225.3127288818359	-3050.995849609375	1107.662353515625	-404.0050048828125	-2959.93017578125	780.8782958984375	-531.6854858398438	-3414.496826171875	453.7817993164062	-488.2682189941406	-3032.294921875	805.83642578125	-564.0532836914062	-3000.84912109375	686.4342041015625	-515.275390625	-2584.681640625	172.9112854003906	-235.8160095214844	-3329.585693359375	501.6988525390625	-523.9303588867188	-3076.324462890625	717.060302734375	-539.7333374023438	-2831.4443359375	889.1102294921875	-246.2996978759766	-3455.7861328125	146.6971282958984	-429.0549926757812	-2896.949462890625	848.9323120117188	-218.7173156738281	-2781.0625	799.9384155273438	-249.7330322265625	-2850.74951171875	760.645751953125	-235.7617034912109	-3121.13037109375	569.6254272460938	-506.375732421875	-2756.383544921875	618.87646484375	-265.8330078125	-3287.555419921875	431.0132446289062	-510.4300842285156	-3377.900634765625	384.9130859375	-507.6008911132812	-2737.316650390625	425.5794067382812	-242.0077819824219	-3501.237548828125	193.1499176025391	-495.2722473144531	-2815.881103515625	416.5223693847656	-263.209228515625	-3557.0244140625	369.6444091796875	-429.005859375	-2722.657958984375	326.228271484375	-253.5937042236328	-2797.03857421875	319.820556640625	-286.1792907714844	-3491.678955078125	342.1590881347656	-502.8816223144531	-2728.858642578125	187.6469879150391	-260.5847473144531	-2534.465087890625	203.1991424560547	-306.6572265625	-2779.647216796875	126.0933303833008	-307.9365844726562	-2754.480712890625	104.6979141235352	-338.36669921875	-2766.750732421875	102.9249649047852	-287.6421508789062	-3564.12890625	362.9972839355469	-479.9796447753906
4	0.015	-2855.948974609375	1550.776489257812	-552.0148315429688	-2947.471435546875	1534.613159179688	-242.4704132080078	-2904.58642578125	1068.81689453125	-546.9796142578125	-2922.79150390625	1095.7724609375	-253.1045989990234	-2866.764404296875	1025.193359375	-519.8460083007812	-3515.275390625	393.7499389648438	-461.1083984375	-2883.69921875	1048.611572265625	-257.9352416992188	-2997.000732421875	966.4263305664062	-564.4269409179688	-2982.276123046875	961.2177124023438	-226.0719909667969	-3030.483154296875	1107.073486328125	-403.7450561523438	-2936.3017578125	780.7368774414062	-529.8997802734375	-3393.090576171875	460.6768493652344	-487.4400329589844	-3008.271728515625	804.591064453125	-562.9251098632812	-2976.628173828125	686.1380615234375	-513.1190795898438	-2553.396240234375	174.9396514892578	-235.9178161621094	-3306.976806640625	506.0444946289062	-523.8241577148438	-3051.82470703125	715.7568359375	-538.3961791992188	-2812.268798828125	884.2608032226562	-246.8033905029297	-3441.90771484375	155.7563781738281	-427.5670776367188	-2877.828857421875	845.4871826171875	-216.8654022216797	-2762.733154296875	794.6461791992188	-248.5655975341797	-2834.46240234375	756.6963500976562	-233.9444580078125	-3096.018310546875	567.2161865234375	-505.5283813476562	-2740.65625	614.8941650390625	-266.1105651855469	-3266.099853515625	433.4919128417969	-509.0558776855469	-3360.172607421875	391.7494506835938	-506.7456970214844	-2713.9375	423.3168334960938	-241.9131164550781	-3486.401123046875	203.4194030761719	-494.6071472167969	-2793.905517578125	412.0819702148438	-262.6704711914062	-3536.6923828125	381.8326110839844	-427.08740234375	-2696.018310546875	324.7755737304688	-254.4511566162109	-2770.779052734375	314.8955383300781	-284.61865234375	-3473.485107421875	350.9224853515625	-501.8183288574219	-2699.46728515625	185.2478485107422	-259.6180114746094	-2504.6904296875	207.1957550048828	-306.158447265625	-2747.43505859375	121.8941192626953	-306.142333984375	-2721.498779296875	101.2426681518555	-337.2385559082031	-2733.66943359375	99.0115966796875	-285.17626953125	-3544.614501953125	374.6314086914062	-478.7298583984375
5	0.02	-2834.28955078125	1550.761108398438	-550.7482299804688	-2926.181640625	1533.44140625	-241.0667724609375	-2884.037353515625	1069.220092773438	-547.1715698242188	-2901.28125	1095.693115234375	-252.6383209228516	-2845.546142578125	1025.421997070312	-520.2594604492188	-3495.160888671875	404.6708984375	-460.2281188964844	-2863.029052734375	1048.1435546875	-258.3779907226562	-2975.16943359375	965.6854248046876	-564.4359741210938	-2960.781005859375	959.632080078125	-225.8766784667969	-3009.631103515625	1106.012451171875	-403.112548828125	-2912.594482421875	780.587890625	-528.4996337890625	-3370.828857421875	466.7843322753906	-486.73388671875	-2984.435791015625	803.6358032226562	-561.9766845703125	-2951.5966796875	684.969970703125	-511.2939453125	-2523.150146484375	176.5883026123047	-235.4815673828125	-3283.327392578125	509.720703125	-522.8399658203125	-3027.02685546875	713.340576171875	-538.2037963867188	-2793.400390625	879.2667846679688	-246.3757171630859	-3428.2783203125	164.2293853759766	-427.3545227050781	-2859.51708984375	841.91015625	-215.8924560546875	-2744.8095703125	789.2376098632812	-249.0126953125	-2816.6474609375	751.906005859375	-231.849609375	-3071.1640625	565.7570190429688	-504.4739074707031	-2724.002685546875	610.4236450195312	-266.73828125	-3245.514404296875	436.7651672363281	-508.9417114257812	-3339.691650390625	397.137451171875	-505.2201232910156	-2692.144287109375	420.5053405761719	-241.1464385986328	-3472.3837890625	213.44580078125	-493.0890808105469	-2771.520263671875	406.6007080078125	-260.3733825683594	-3517.106201171875	393.335693359375	-426.1018371582031	-2671.562255859375	323.3223266601562	-253.9514007568359	-2746.43310546875	310.8041381835938	-283.0491943359375	-3454.19873046875	360.5294799804688	-500.4770202636719	-2669.66259765625	182.9304656982422	-257.9561767578125	-2476.4619140625	211.3243103027344	-306.01171875	-2716.544189453125	118.4313659667969	-304.3489990234375	-2689.761962890625	98.29512786865234	-335.2995910644531	-2701.968505859375	95.52022552490234	-283.4853820800781	-3525.384765625	385.93603515625	-477.4837951660156
